<?xml version="1.0" encoding="iso-8859-1"?>
<!-- Generator: Adobe Illustrator 18.0.0, SVG Export Plug-In . SVG Version: 6.00 Build 0)  -->
<!DOCTYPE svg PUBLIC "-//W3C//DTD SVG 1.1//EN" "http://www.w3.org/Graphics/SVG/1.1/DTD/svg11.dtd">
<svg xmlns="http://www.w3.org/2000/svg" xmlns:xlink="http://www.w3.org/1999/xlink" version="1.1" id="Capa_1" x="0px" y="0px" viewBox="0 0 378.006 378.006" style="enable-background:new 0 0 378.006 378.006;" xml:space="preserve" width="512px" height="512px">
<g>
	<path d="M366.112,34.497c-8.104-1.718-16.066,3.461-17.783,11.565l-4.25,20.06c-10.116,0.891-16.567,3.072-22.399,5.055   c-6.371,2.166-11.404,3.876-22.674,3.876c-11.273,0-16.305-1.71-22.677-3.876c-7.546-2.565-16.099-5.472-32.329-5.472   c-16.23,0-24.783,2.907-32.329,5.472c-6.371,2.166-11.403,3.876-22.674,3.876c-11.27,0-16.302-1.71-22.672-3.876   c-7.546-2.565-16.098-5.473-32.328-5.473c-16.231,0-24.783,2.907-32.329,5.473c-6.37,2.166-11.401,3.876-22.67,3.876   c-11.27,0-16.302-1.71-22.672-3.876c-5.832-1.983-12.283-4.164-22.398-5.055l-4.25-20.06c-1.717-8.104-9.681-13.281-17.783-11.565   C3.79,36.214-1.388,44.176,0.329,52.28l50,236c1.469,6.932,7.588,11.891,14.674,11.891h248c7.086,0,13.206-4.959,14.674-11.891   l50-236C379.394,44.176,374.216,36.214,366.112,34.497z M300.848,270.171H77.158L40.608,97.655   c2.052,0.565,3.987,1.221,6.061,1.926c7.546,2.565,16.098,5.473,32.328,5.473c16.229,0,24.781-2.907,32.326-5.472   c6.371-2.166,11.402-3.877,22.673-3.877c11.27,0,16.302,1.711,22.672,3.876c7.546,2.565,16.098,5.473,32.328,5.473   c16.231,0,24.784-2.907,32.33-5.473c6.371-2.166,11.403-3.876,22.673-3.876c11.271,0,16.303,1.711,22.674,3.876   c7.546,2.565,16.1,5.473,32.332,5.473c16.231,0,24.784-2.907,32.329-5.472c2.075-0.706,4.011-1.361,6.064-1.926L300.848,270.171z" fill="#FFFFFF"/>
	<path d="M143.028,159.672c-7.849,0-15.038,1.536-21.232,4.458l1.126-26.957h55.354c4.142,0,7.5-3.358,7.5-7.5v-6   c0-4.142-3.358-7.5-7.5-7.5h-68.248c-4.017,0-7.32,3.165-7.493,7.177l-2.85,66.147c-0.151,3.499,2.141,6.637,5.519,7.559l4.95,1.35   c3.673,0.999,7.511-0.906,8.932-4.436c4.039-10.038,15.017-13.599,23.19-13.599h1.5c6.675,0,22.199,2.222,22.199,22.799v3   c0,20.577-15.524,22.799-22.199,22.799h-1.5c-15.483,0-19.51-8.342-21.192-14.617c-0.879-3.278-3.85-5.558-7.244-5.558h-6.391   c-2.268,0-4.413,1.026-5.837,2.79c-1.424,1.765-1.973,4.079-1.494,6.295c4.434,20.5,19.672,31.79,42.908,31.79   c26.467,0,44.249-17.782,44.249-44.249v-1.5C187.277,177.454,169.495,159.672,143.028,159.672z" fill="#FFFFFF"/>
	<path d="M236.027,114.674c-26.881,0-42.299,15.581-42.299,42.749v49.498c0,27.168,15.418,42.749,42.299,42.749   c26.881,0,42.299-15.581,42.299-42.749v-49.498C278.326,130.255,262.909,114.674,236.027,114.674z M236.478,228.969h-0.9   c-14.979,0-20.549-6.382-20.549-23.549v-46.498c0-17.166,5.569-23.549,20.549-23.549h0.9c14.979,0,20.549,6.382,20.549,23.549   v46.498C257.026,222.587,251.457,228.969,236.478,228.969z" fill="#FFFFFF"/>
	<path d="M162.001,313.838H96.005c-8.284,0-15,6.716-15,15c0,8.284,6.716,15,15,15h65.996c8.284,0,15-6.716,15-15   C177.001,320.554,170.285,313.838,162.001,313.838z" fill="#FFFFFF"/>
	<path d="M282.001,313.838h-65.996c-8.284,0-15,6.716-15,15c0,8.284,6.716,15,15,15h65.996c8.284,0,15-6.716,15-15   C297.001,320.554,290.285,313.838,282.001,313.838z" fill="#FFFFFF"/>
</g>
<g>
</g>
<g>
</g>
<g>
</g>
<g>
</g>
<g>
</g>
<g>
</g>
<g>
</g>
<g>
</g>
<g>
</g>
<g>
</g>
<g>
</g>
<g>
</g>
<g>
</g>
<g>
</g>
<g>
</g>
</svg>
